<mxfile host="Electron" modified="2023-06-21T06:51:59.125Z" agent="Mozilla/5.0 (X11; Linux x86_64) AppleWebKit/537.36 (KHTML, like Gecko) draw.io/21.5.0 Chrome/112.0.5615.204 Electron/24.5.1 Safari/537.36" etag="VFRgw8v6Fvv1jllAIIvw" version="21.5.0" type="device">
  <diagram name="Page-1" id="ekJ5JVNTDzXtlesDRp51">
    <mxGraphModel dx="1731" dy="1751" grid="1" gridSize="10" guides="1" tooltips="1" connect="1" arrows="1" fold="1" page="1" pageScale="1" pageWidth="827" pageHeight="1169" math="0" shadow="0">
      <root>
        <mxCell id="0" />
        <mxCell id="1" parent="0" />
        <mxCell id="6NZUA3iDctFgoxGatP6J-10" style="edgeStyle=orthogonalEdgeStyle;rounded=0;orthogonalLoop=1;jettySize=auto;html=1;entryX=0.5;entryY=0;entryDx=0;entryDy=0;endArrow=none;endFill=0;exitX=0.5;exitY=1;exitDx=0;exitDy=0;startArrow=classic;startFill=1;" edge="1" parent="1" source="6NZUA3iDctFgoxGatP6J-1" target="6NZUA3iDctFgoxGatP6J-3">
          <mxGeometry relative="1" as="geometry" />
        </mxCell>
        <mxCell id="6NZUA3iDctFgoxGatP6J-11" style="edgeStyle=orthogonalEdgeStyle;rounded=0;orthogonalLoop=1;jettySize=auto;html=1;entryX=0;entryY=0.5;entryDx=0;entryDy=0;endArrow=none;endFill=0;startArrow=classic;startFill=1;" edge="1" parent="1" source="6NZUA3iDctFgoxGatP6J-1" target="6NZUA3iDctFgoxGatP6J-6">
          <mxGeometry relative="1" as="geometry" />
        </mxCell>
        <mxCell id="6NZUA3iDctFgoxGatP6J-1" value="Internet" style="rounded=0;whiteSpace=wrap;html=1;" vertex="1" parent="1">
          <mxGeometry x="-100" y="-70" width="250" height="170" as="geometry" />
        </mxCell>
        <mxCell id="6NZUA3iDctFgoxGatP6J-9" style="edgeStyle=orthogonalEdgeStyle;rounded=0;orthogonalLoop=1;jettySize=auto;html=1;entryX=0;entryY=0.5;entryDx=0;entryDy=0;endArrow=none;endFill=0;startArrow=classic;startFill=1;" edge="1" parent="1" source="6NZUA3iDctFgoxGatP6J-2" target="6NZUA3iDctFgoxGatP6J-4">
          <mxGeometry relative="1" as="geometry" />
        </mxCell>
        <mxCell id="6NZUA3iDctFgoxGatP6J-2" value="Base de donnée" style="rounded=0;whiteSpace=wrap;html=1;" vertex="1" parent="1">
          <mxGeometry x="-35" y="290" width="120" height="60" as="geometry" />
        </mxCell>
        <mxCell id="6NZUA3iDctFgoxGatP6J-7" style="edgeStyle=orthogonalEdgeStyle;rounded=0;orthogonalLoop=1;jettySize=auto;html=1;exitX=1;exitY=0.5;exitDx=0;exitDy=0;endArrow=none;endFill=0;startArrow=classic;startFill=1;" edge="1" parent="1" source="6NZUA3iDctFgoxGatP6J-3" target="6NZUA3iDctFgoxGatP6J-5">
          <mxGeometry relative="1" as="geometry" />
        </mxCell>
        <mxCell id="6NZUA3iDctFgoxGatP6J-3" value="Service RMI des données bloquée" style="rounded=0;whiteSpace=wrap;html=1;" vertex="1" parent="1">
          <mxGeometry x="-35" y="180" width="120" height="60" as="geometry" />
        </mxCell>
        <mxCell id="6NZUA3iDctFgoxGatP6J-8" style="edgeStyle=orthogonalEdgeStyle;rounded=0;orthogonalLoop=1;jettySize=auto;html=1;entryX=0.5;entryY=1;entryDx=0;entryDy=0;endArrow=none;endFill=0;startArrow=classic;startFill=1;" edge="1" parent="1" source="6NZUA3iDctFgoxGatP6J-4" target="6NZUA3iDctFgoxGatP6J-5">
          <mxGeometry relative="1" as="geometry" />
        </mxCell>
        <mxCell id="6NZUA3iDctFgoxGatP6J-4" value="Service RMI de base de donnée" style="rounded=0;whiteSpace=wrap;html=1;" vertex="1" parent="1">
          <mxGeometry x="320" y="290" width="120" height="60" as="geometry" />
        </mxCell>
        <mxCell id="6NZUA3iDctFgoxGatP6J-12" style="edgeStyle=orthogonalEdgeStyle;rounded=0;orthogonalLoop=1;jettySize=auto;html=1;entryX=0.5;entryY=1;entryDx=0;entryDy=0;endArrow=none;endFill=0;startArrow=classic;startFill=1;" edge="1" parent="1" source="6NZUA3iDctFgoxGatP6J-5" target="6NZUA3iDctFgoxGatP6J-6">
          <mxGeometry relative="1" as="geometry" />
        </mxCell>
        <mxCell id="6NZUA3iDctFgoxGatP6J-5" value="Proxy" style="rounded=0;whiteSpace=wrap;html=1;" vertex="1" parent="1">
          <mxGeometry x="320" y="110" width="120" height="60" as="geometry" />
        </mxCell>
        <mxCell id="6NZUA3iDctFgoxGatP6J-6" value="Application web" style="rounded=0;whiteSpace=wrap;html=1;" vertex="1" parent="1">
          <mxGeometry x="320" y="-15" width="120" height="60" as="geometry" />
        </mxCell>
      </root>
    </mxGraphModel>
  </diagram>
</mxfile>
